<svg width="57" height="34" viewBox="0 0 57 34" fill="none" xmlns="http://www.w3.org/2000/svg">
<path fill-rule="evenodd" clip-rule="evenodd" d="M0 0H56.571V2.61641H0V0ZM0 5.23281H56.571V7.84922H0V5.23281ZM0 10.459H56.571V13.082H0V10.459ZM0 15.6918H56.571V18.3082H0V15.6918ZM0 20.9246H56.571V23.541H0V20.9246ZM0 26.1508H56.571V28.7672H0V26.1508ZM0 31.3836H56.571V34H0V31.3836Z" fill="#BD3D44"/>
<path fill-rule="evenodd" clip-rule="evenodd" d="M0 2.61639H56.571V5.2328H0V2.61639ZM0 7.84921H56.571V10.459H0V7.84921ZM0 13.0754H56.571V15.6918H0V13.0754ZM0 18.3082H56.571V20.9246H0V18.3082ZM0 23.541H56.571V26.1574H0V23.541ZM0 28.7672H56.571V31.3836H0V28.7672Z" fill="white"/>
<path fill-rule="evenodd" clip-rule="evenodd" d="M0 0H22.6272V18.3082H0V0Z" fill="#192F5D"/>
<path fill-rule="evenodd" clip-rule="evenodd" d="M1.88413 0.7836L2.09348 1.50743H2.75642L2.22142 1.95235L2.42495 2.68282L1.88413 2.23126L1.34913 2.67618L1.55266 1.95235L1.01184 1.50743H1.68641L1.88413 0.7836ZM5.65825 0.7836L5.86178 1.50743H6.53054L5.98972 1.95235L6.19325 2.68282L5.65825 2.23126L5.11743 2.67618L5.32096 1.95235L4.78596 1.50743H5.4489L5.65825 0.7836ZM9.42655 0.7836L9.6359 1.50743H10.293L9.75802 1.95235L9.96155 2.68282L9.42073 2.23126L8.88573 2.67618L9.08926 1.95235L8.54844 1.50743H9.2172L9.42655 0.7836ZM13.2007 0.7836L13.4042 1.50743H14.073L13.5321 1.95235L13.7415 2.68282L13.2007 2.23126L12.6598 2.67618L12.8692 1.95235L12.3284 1.50743H12.9913L13.2007 0.7836ZM16.969 0.7836L17.1783 1.50743H17.8413L17.3063 1.95235L17.5098 2.68282L16.969 2.23126L16.434 2.67618L16.6375 1.95235L16.1025 1.50743H16.7654L16.969 0.7836ZM20.7431 0.7836L20.9466 1.50743H21.6154L21.0746 1.95235L21.2839 2.68282L20.7431 2.23126L20.2023 2.67618L20.4116 1.95235L19.8708 1.50743H20.5395L20.7431 0.7836ZM3.7741 2.61641L3.97763 3.34024H4.64639L4.10557 3.78516L4.30329 4.50899L3.77991 4.06407L3.23909 4.50899L3.431 3.78516L2.90762 3.34024H3.57056L3.7741 2.61641ZM7.5424 2.61641L7.75175 3.34024H8.41469L7.87387 3.78516L8.08322 4.50899L7.5424 4.06407L7.00158 4.50899L7.21093 3.78516L6.67011 3.34024H7.33886L7.5424 2.61641ZM11.3165 2.61641L11.52 3.34024H12.1888L11.648 3.78516L11.8515 4.50899L11.3165 4.06407L10.7757 4.50899L10.9792 3.78516L10.4442 3.34024H11.1072L11.3165 2.61641ZM15.0848 2.61641L15.2942 3.34024H15.9571L15.4163 3.78516L15.6256 4.50899L15.0848 4.06407L14.5498 4.50899L14.7533 3.78516L14.2125 3.34024H14.8871L15.0848 2.61641ZM18.8589 2.61641L19.0625 3.34024H19.7312L19.1904 3.78516L19.3939 4.50899L18.8589 4.06407L18.3181 4.50899L18.5216 3.78516L17.9866 3.34024H18.6496L18.8589 2.61641ZM1.88413 4.44258L2.09348 5.17969H2.75642L2.22142 5.62462L2.42495 6.34844L1.88413 5.89688L1.34913 6.34844L1.55266 5.61797L1.01184 5.17305H1.68641L1.88413 4.44258ZM5.65825 4.44258L5.86178 5.17305H6.53054L5.98972 5.61797L6.19325 6.3418L5.65825 5.89024L5.11743 6.3418L5.32096 5.61133L4.78596 5.16641H5.4489L5.65825 4.44258ZM9.42655 4.44258L9.6359 5.17305H10.293L9.75802 5.61797L9.96155 6.3418L9.42073 5.89024L8.88573 6.3418L9.08926 5.61133L8.54844 5.16641H9.2172L9.42655 4.44258ZM13.2007 4.44258L13.4042 5.17305H14.073L13.5321 5.61797L13.7415 6.3418L13.2007 5.89024L12.6598 6.3418L12.8692 5.61133L12.3284 5.16641H12.9913L13.2007 4.44258ZM16.969 4.44258L17.1783 5.17305H17.8413L17.3063 5.61797L17.5098 6.3418L16.969 5.89024L16.434 6.3418L16.6375 5.61133L16.1025 5.16641H16.7654L16.969 4.44258ZM20.7431 4.44258L20.9466 5.17305H21.6154L21.0746 5.61797L21.2839 6.3418L20.7431 5.89024L20.2023 6.3418L20.4116 5.61133L19.8708 5.16641H20.5395L20.7431 4.44258ZM3.7741 6.2754L3.97763 6.99922H4.64639L4.10557 7.44415L4.3091 8.17462L3.7741 7.72305L3.23328 8.16797L3.43681 7.44415L2.90181 6.99922H3.56475L3.7741 6.2754ZM7.5424 6.2754L7.75175 6.99922H8.41469L7.87387 7.44415L8.08322 8.17462L7.5424 7.72305L7.00158 8.16797L7.21093 7.44415L6.67011 6.99922H7.33886L7.5424 6.2754ZM11.3165 6.2754L11.52 6.99922H12.1888L11.648 7.44415L11.8515 8.17462L11.3165 7.72305L10.7757 8.16797L10.9792 7.44415L10.4442 6.99922H11.1072L11.3165 6.2754ZM15.0848 6.2754L15.2942 6.99922H15.9571L15.4221 7.44415L15.6256 8.17462L15.0848 7.72305L14.5498 8.16797L14.7533 7.44415L14.2125 6.99922H14.8871L15.0848 6.2754ZM18.8589 6.2754L19.0625 6.99922H19.7312L19.1904 7.44415L19.3939 8.17462L18.8589 7.72305L18.3181 8.16797L18.5216 7.44415L17.9866 6.99922H18.6496L18.8589 6.2754ZM1.88413 8.10821L2.09348 8.83204H2.75642L2.22142 9.27696L2.42495 10.0074L1.88413 9.55587L1.34913 10.0008L1.55266 9.27696L1.01184 8.83204H1.68641L1.88413 8.10821ZM5.65825 8.10821L5.86178 8.83204H6.53054L5.98972 9.27696L6.19325 10.0008L5.65825 9.55587L5.11743 10.0008L5.32096 9.27696L4.78596 8.83204H5.4489L5.65825 8.10821ZM9.42655 8.10821L9.6359 8.83204H10.293L9.75802 9.27696L9.96155 10.0074L9.42073 9.55587L8.88573 10.0008L9.08926 9.27696L8.54844 8.83204H9.2172L9.42655 8.10821ZM13.2007 8.10821L13.4042 8.83204H14.073L13.5321 9.27696L13.7415 10.0074L13.2007 9.55587L12.6598 10.0008L12.8692 9.27696L12.3284 8.83204H12.9913L13.2007 8.10821ZM16.969 8.10821L17.1783 8.83204H17.8413L17.3063 9.27696L17.5098 10.0074L16.969 9.55587L16.434 10.0008L16.6375 9.27696L16.1025 8.83204H16.7654L16.969 8.10821ZM20.7431 8.10821L20.9466 8.83204H21.6154L21.0746 9.27696L21.2839 10.0074L20.7431 9.55587L20.2023 10.0008L20.4116 9.27696L19.8708 8.83204H20.5395L20.7431 8.10821ZM3.7741 9.94102L3.97763 10.6649H4.64639L4.10557 11.1098L4.3091 11.8336L3.7741 11.382L3.23328 11.8336L3.43681 11.1031L2.90181 10.6582H3.56475L3.7741 9.94102ZM7.5424 9.94102L7.75175 10.6649H8.41469L7.87387 11.1098L8.08322 11.8336L7.5424 11.382L7.00158 11.8336L7.21093 11.1031L6.67011 10.6582H7.33886L7.5424 9.94102ZM11.3165 9.94102L11.52 10.6649H12.1888L11.648 11.1098L11.8515 11.8336L11.3165 11.382L10.7757 11.8336L10.9792 11.1031L10.4442 10.6582H11.1072L11.3165 9.94102ZM15.0848 9.94102L15.2942 10.6649H15.9571L15.4221 11.1098L15.6256 11.8336L15.0848 11.382L14.5498 11.8336L14.7533 11.1031L14.2125 10.6582H14.8871L15.0848 9.94102ZM18.8589 9.94102L19.0625 10.6649H19.7312L19.1904 11.1098L19.3939 11.8336L18.8589 11.382L18.3181 11.8336L18.5216 11.1031L17.9866 10.6582H18.6496L18.8589 9.94102ZM1.88413 11.7672L2.09348 12.4977H2.75642L2.22142 12.9426L2.42495 13.6598L1.88413 13.2148L1.34913 13.6598L1.55266 12.9359L1.01184 12.491H1.68641L1.88413 11.7672ZM5.65825 11.7672L5.86178 12.4977H6.53054L5.98972 12.9426L6.19907 13.6598L5.65825 13.2148L5.11743 13.6598L5.32678 12.9359L4.78596 12.491H5.4489L5.65825 11.7672ZM9.42655 11.7672L9.6359 12.4977H10.293L9.75802 12.9426L9.96155 13.6598L9.42073 13.2148L8.88573 13.6598L9.08926 12.9359L8.54844 12.491H9.2172L9.42655 11.7672ZM13.2007 11.7672L13.4042 12.4977H14.073L13.5321 12.9426L13.7415 13.6598L13.2007 13.2148L12.6598 13.6598L12.8692 12.9359L12.3284 12.491H12.9913L13.2007 11.7672ZM16.969 11.7672L17.1783 12.4977H17.8413L17.3063 12.9426L17.5098 13.6598L16.969 13.2148L16.434 13.6598L16.6375 12.9359L16.1025 12.491H16.7654L16.969 11.7672ZM20.7431 11.7672L20.9466 12.4977H21.6154L21.0746 12.9426L21.2839 13.6598L20.7431 13.2148L20.2023 13.6598L20.4116 12.9359L19.8708 12.491H20.5395L20.7431 11.7672ZM3.7741 13.6L3.97763 14.3238H4.64639L4.10557 14.7688L4.3091 15.4992L3.7741 15.0477L3.23328 15.4926L3.43681 14.7688L2.90181 14.3238H3.56475L3.7741 13.6ZM7.5424 13.6L7.75175 14.3238H8.41469L7.87387 14.7688L8.08322 15.4992L7.5424 15.0477L7.00158 15.4926L7.21093 14.7688L6.67011 14.3238H7.33886L7.5424 13.6ZM11.3165 13.6L11.52 14.3238H12.1888L11.648 14.7688L11.8515 15.4992L11.3165 15.0477L10.7757 15.4926L10.9792 14.7688L10.4442 14.3238H11.1072L11.3165 13.6ZM15.0848 13.6L15.2942 14.3238H15.9571L15.4221 14.7688L15.6256 15.4992L15.0848 15.0477L14.5498 15.4926L14.7533 14.7688L14.2125 14.3238H14.8871L15.0848 13.6ZM18.8589 13.6L19.0625 14.3238H19.7312L19.1904 14.7688L19.3939 15.4992L18.8589 15.0477L18.3181 15.4926L18.5216 14.7688L17.9866 14.3238H18.6496L18.8589 13.6ZM1.88413 15.4328L2.09348 16.1566H2.75642L2.22142 16.6016L2.42495 17.3254L1.88413 16.8805L1.34913 17.3254L1.55266 16.5949L1.01184 16.15H1.68641L1.88413 15.4328ZM5.65825 15.4328L5.86178 16.1566H6.53054L5.98972 16.6016L6.19907 17.3254L5.65825 16.8805L5.11743 17.3254L5.32678 16.5949L4.78596 16.15H5.4489L5.65825 15.4328ZM9.42655 15.4328L9.6359 16.1566H10.293L9.76965 16.6016L9.97319 17.3254L9.43236 16.8805L8.89736 17.3254L9.10089 16.5949L8.56007 16.15H9.22883L9.42655 15.4328ZM13.2007 15.4328L13.4042 16.1566H14.073L13.5321 16.6016L13.7415 17.3254L13.2007 16.8805L12.6598 17.3254L12.8692 16.5949L12.3284 16.15H12.9913L13.2007 15.4328ZM16.969 15.4328L17.1783 16.1566H17.8413L17.3063 16.6016L17.5098 17.3254L16.969 16.8805L16.434 17.3254L16.6375 16.5949L16.1025 16.15H16.7654L16.969 15.4328ZM20.7431 15.4328L20.9466 16.1566H21.6154L21.0746 16.6016L21.2839 17.3254L20.7431 16.8805L20.2023 17.3254L20.4116 16.5949L19.8708 16.15H20.5395L20.7431 15.4328Z" fill="white"/>
</svg>
