<svg width="25" height="25" viewBox="0 0 25 25" fill="none" xmlns="http://www.w3.org/2000/svg">
<path d="M4.8373 5H21.3998C22.9623 5 23.7498 5.7375 23.7498 7.2375V17.7625C23.7498 19.25 22.9623 20 21.3998 20H4.8373C3.2748 20 2.4873 19.25 2.4873 17.7625V7.2375C2.4873 5.7375 3.2748 5 4.8373 5ZM13.1123 15.75L21.5373 8.8375C21.8373 8.5875 22.0748 8.0125 21.6998 7.5C21.3373 6.9875 20.6748 6.975 20.2373 7.2875L13.1123 12.1125L5.9998 7.2875C5.5623 6.975 4.8998 6.9875 4.5373 7.5C4.1623 8.0125 4.3998 8.5875 4.6998 8.8375L13.1123 15.75Z" fill="black"/>
</svg>
