<svg width="37" height="38" viewBox="0 0 37 38" fill="none" xmlns="http://www.w3.org/2000/svg">
<path d="M9.26368 12.516V10.9808C9.26368 5.89366 13.3226 1.76971 18.3296 1.76971C23.3366 1.76971 27.3955 5.89366 27.3955 10.9808V12.516H30.4175C31.252 12.516 31.9285 13.2033 31.9285 14.0512V32.4733C31.9285 33.3212 31.252 34.0085 30.4175 34.0085H6.2417C5.40721 34.0085 4.73071 33.3212 4.73071 32.4733V14.0512C4.73071 13.2033 5.40721 12.516 6.2417 12.516H9.26368ZM28.9065 15.5863H7.75269V30.9382H28.9065V15.5863ZM16.8186 24.3866C15.9154 23.8558 15.3076 22.8636 15.3076 21.7271C15.3076 20.0313 16.6606 18.6567 18.3296 18.6567C19.9987 18.6567 21.3516 20.0313 21.3516 21.7271C21.3516 22.8636 20.7439 23.8558 19.8406 24.3866V27.8678H16.8186V24.3866ZM12.2857 12.516H24.3736V10.9808C24.3736 7.58937 21.6675 4.84008 18.3296 4.84008C14.9916 4.84008 12.2857 7.58937 12.2857 10.9808V12.516Z" fill="#1C1C1C"/>
</svg>
