<svg width="37" height="38" viewBox="0 0 37 38" fill="none" xmlns="http://www.w3.org/2000/svg">
<path d="M30.4175 34.5458H27.3955V31.4755C27.3955 28.9318 25.3661 26.8699 22.8626 26.8699H13.7966C11.2932 26.8699 9.26368 28.9318 9.26368 31.4755V34.5458H6.2417V31.4755C6.2417 27.2362 9.62417 23.7995 13.7966 23.7995H22.8626C27.035 23.7995 30.4175 27.2362 30.4175 31.4755V34.5458ZM18.3296 20.7292C13.3226 20.7292 9.26368 16.6052 9.26368 11.5181C9.26368 6.43095 13.3226 2.30701 18.3296 2.30701C23.3366 2.30701 27.3955 6.43095 27.3955 11.5181C27.3955 16.6052 23.3366 20.7292 18.3296 20.7292ZM18.3296 17.6588C21.6675 17.6588 24.3736 14.9095 24.3736 11.5181C24.3736 8.12666 21.6675 5.37737 18.3296 5.37737C14.9916 5.37737 12.2857 8.12666 12.2857 11.5181C12.2857 14.9095 14.9916 17.6588 18.3296 17.6588Z" fill="#1C1C1C"/>
</svg>
