<svg width="48" height="48" viewBox="0 0 48 48" fill="none" xmlns="http://www.w3.org/2000/svg">
<path fill-rule="evenodd" clip-rule="evenodd" d="M30 18C30 20.1217 29.1571 22.1566 27.6569 23.6569C26.1566 25.1571 24.1217 26 22 26C19.8783 26 17.8434 25.1571 16.3431 23.6569C14.8429 22.1566 14 20.1217 14 18C14 15.8783 14.8429 13.8434 16.3431 12.3431C17.8434 10.8429 19.8783 10 22 10C24.1217 10 26.1566 10.8429 27.6569 12.3431C29.1571 13.8434 30 15.8783 30 18ZM26 18C26 19.0609 25.5786 20.0783 24.8284 20.8284C24.0783 21.5786 23.0609 22 22 22C20.9391 22 19.9217 21.5786 19.1716 20.8284C18.4214 20.0783 18 19.0609 18 18C18 16.9391 18.4214 15.9217 19.1716 15.1716C19.9217 14.4214 20.9391 14 22 14C23.0609 14 24.0783 14.4214 24.8284 15.1716C25.5786 15.9217 26 16.9391 26 18Z" fill="black"/>
<path fill-rule="evenodd" clip-rule="evenodd" d="M22 2C9.85 2 0 11.85 0 24C0 36.15 9.85 46 22 46C34.15 46 44 36.15 44 24C44 11.85 34.15 2 22 2ZM4 24C4 28.18 5.426 32.028 7.816 35.084C9.49488 32.8803 11.6603 31.0943 14.1433 29.8655C16.6262 28.6366 19.3596 27.9982 22.13 28C24.8648 27.9968 27.5641 28.6182 30.0223 29.8167C32.4804 31.0153 34.6323 32.7594 36.314 34.916C38.0469 32.6432 39.2137 29.9904 39.7178 27.1772C40.2219 24.3639 40.0489 21.4711 39.213 18.738C38.3771 16.0049 36.9024 13.5101 34.911 11.4601C32.9195 9.41005 30.4685 7.86372 27.7608 6.94902C25.053 6.03432 22.1664 5.77754 19.3397 6.19995C16.513 6.62235 13.8276 7.71178 11.5055 9.37811C9.18349 11.0444 7.29162 13.2397 5.98646 15.7824C4.68129 18.325 4.00036 21.1419 4 24ZM22 42C17.8678 42.0067 13.8603 40.5851 10.656 37.976C11.9456 36.1292 13.6624 34.6214 15.6602 33.5809C17.6579 32.5404 19.8775 31.9981 22.13 32C24.3544 31.9981 26.5471 32.5269 28.526 33.5426C30.5049 34.5583 32.2128 36.0316 33.508 37.84C30.2789 40.534 26.2053 42.0066 22 42Z" fill="black"/>
</svg>
