<svg width="32" height="40" viewBox="0 0 32 40" fill="none" xmlns="http://www.w3.org/2000/svg">
<path fill-rule="evenodd" clip-rule="evenodd" d="M3.46946 12.8151C3.46946 9.41632 4.78964 6.15675 7.13957 3.75345C9.4895 1.35016 12.6767 0 16 0C19.3233 0 22.5105 1.35016 24.8604 3.75345C27.2104 6.15675 28.5305 9.41632 28.5305 12.8151V19.706L31.7921 26.3771C31.9422 26.6842 32.0131 27.0254 31.998 27.3683C31.9829 27.7113 31.8824 28.0446 31.7059 28.3366C31.5294 28.6287 31.2828 28.8697 30.9896 29.0368C30.6964 29.204 30.3663 29.2917 30.0306 29.2916H22.9348C22.5366 30.8628 21.6395 32.2543 20.3844 33.2477C19.1292 34.2411 17.5871 34.7801 16 34.7801C14.4129 34.7801 12.8708 34.2411 11.6156 33.2477C10.3605 32.2543 9.46342 30.8628 9.06524 29.2916H1.96938C1.6337 29.2917 1.30358 29.204 1.01037 29.0368C0.717168 28.8697 0.470612 28.6287 0.294124 28.3366C0.117635 28.0446 0.0170732 27.7113 0.00198929 27.3683C-0.0130947 27.0254 0.0578002 26.6842 0.20794 26.3771L3.46946 19.706V12.8151ZM12.8996 29.2916C13.2138 29.8482 13.6658 30.3104 14.21 30.6317C14.7542 30.953 15.3716 31.1222 16 31.1222C16.6284 31.1222 17.2458 30.953 17.79 30.6317C18.3342 30.3104 18.7862 29.8482 19.1004 29.2916H12.8996ZM16 3.66146C13.6262 3.66146 11.3496 4.62585 9.67112 6.34249C7.9926 8.05913 7.04961 10.3874 7.04961 12.8151V19.706C7.04958 20.2741 6.92027 20.8344 6.67191 21.3426L4.57752 25.6302H27.4243L25.3299 21.3426C25.0809 20.8346 24.951 20.2742 24.9504 19.706V12.8151C24.9504 10.3874 24.0074 8.05913 22.3289 6.34249C20.6504 4.62585 18.3738 3.66146 16 3.66146Z" fill="black"/>
</svg>
