<svg width="41" height="43" viewBox="0 0 41 43" fill="none" xmlns="http://www.w3.org/2000/svg">
<path d="M26.3469 25.0833H25.0041L24.5282 24.5996C26.2517 22.4927 27.1989 19.8028 27.1968 17.0208C27.1968 14.7175 26.5488 12.4659 25.3348 10.5508C24.1208 8.63561 22.3952 7.14294 20.3763 6.26149C18.3575 5.38005 16.136 5.14942 13.9927 5.59878C11.8495 6.04813 9.88085 7.15729 8.33568 8.78599C6.7905 10.4147 5.73822 12.4898 5.31191 14.7488C4.8856 17.0079 5.1044 19.3495 5.94064 21.4775C6.77688 23.6055 8.19301 25.4243 10.0099 26.704C11.8269 27.9837 13.963 28.6667 16.1482 28.6667C18.8849 28.6667 21.4006 27.6096 23.3383 25.8538L23.7973 26.3554V27.7708L32.2962 36.7113L34.8289 34.0417L26.3469 25.0833ZM16.1482 25.0833C11.9158 25.0833 8.49919 21.4821 8.49919 17.0208C8.49919 12.5596 11.9158 8.95834 16.1482 8.95834C20.3807 8.95834 23.7973 12.5596 23.7973 17.0208C23.7973 21.4821 20.3807 25.0833 16.1482 25.0833Z" fill="#525252" fill-opacity="0.8"/>
</svg>
