<svg width="43" height="43" viewBox="0 0 43 43" fill="none" xmlns="http://www.w3.org/2000/svg">
<path d="M27.7708 25.0833H26.3554L25.8538 24.5996C27.6704 22.4927 28.6688 19.8028 28.6667 17.0208C28.6667 14.7175 27.9837 12.4659 26.704 10.5508C25.4243 8.63561 23.6055 7.14294 21.4775 6.26149C19.3495 5.38005 17.0079 5.14942 14.7488 5.59878C12.4898 6.04813 10.4147 7.15729 8.78599 8.78599C7.15729 10.4147 6.04813 12.4898 5.59878 14.7488C5.14942 17.0079 5.38005 19.3495 6.26149 21.4775C7.14294 23.6055 8.63561 25.4243 10.5508 26.704C12.4659 27.9837 14.7175 28.6667 17.0208 28.6667C19.9054 28.6667 22.5571 27.6096 24.5996 25.8538L25.0833 26.3554V27.7708L34.0417 36.7113L36.7113 34.0417L27.7708 25.0833ZM17.0208 25.0833C12.5596 25.0833 8.95834 21.4821 8.95834 17.0208C8.95834 12.5596 12.5596 8.95834 17.0208 8.95834C21.4821 8.95834 25.0833 12.5596 25.0833 17.0208C25.0833 21.4821 21.4821 25.0833 17.0208 25.0833Z" fill="#525252" fill-opacity="0.8"/>
</svg>
