<svg width="76" height="84" viewBox="0 0 76 84" fill="none" xmlns="http://www.w3.org/2000/svg">
<path fill-rule="evenodd" clip-rule="evenodd" d="M25.3333 24.5C25.3333 20.787 26.6679 17.226 29.0433 14.6005C31.4188 11.975 34.6406 10.5 38 10.5C41.3594 10.5 44.5812 11.975 46.9567 14.6005C49.3321 17.226 50.6667 20.787 50.6667 24.5C50.6667 28.213 49.3321 31.774 46.9567 34.3995C44.5812 37.025 41.3594 38.5 38 38.5C34.6406 38.5 31.4188 37.025 29.0433 34.3995C26.6679 31.774 25.3333 28.213 25.3333 24.5ZM25.3333 45.5C21.1341 45.5 17.1068 47.3437 14.1375 50.6256C11.1681 53.9075 9.5 58.3587 9.5 63C9.5 65.7848 10.5009 68.4555 12.2825 70.4246C14.0641 72.3938 16.4804 73.5 19 73.5H57C59.5196 73.5 61.9359 72.3938 63.7175 70.4246C65.4991 68.4555 66.5 65.7848 66.5 63C66.5 58.3587 64.8319 53.9075 61.8625 50.6256C58.8932 47.3437 54.8659 45.5 50.6667 45.5H25.3333Z" fill="#B6B6B6"/>
</svg>
