<svg width="25" height="25" viewBox="0 0 25 25" fill="none" xmlns="http://www.w3.org/2000/svg">
<path fill-rule="evenodd" clip-rule="evenodd" d="M14.652 5.39586L13.0832 7.16044L11.9155 6.1219L13.4832 4.35836C13.752 4.05614 14.0817 3.81425 14.4506 3.64861C14.8196 3.48298 15.2194 3.39734 15.6239 3.39734C16.0283 3.39734 16.4281 3.48298 16.7971 3.64861C17.166 3.81425 17.4957 4.05614 17.7645 4.35836L23.3103 10.5979C23.7761 11.1222 24.0334 11.7992 24.0334 12.5005C24.0334 13.2019 23.7761 13.8788 23.3103 14.4031M23.3103 14.4031L17.7645 20.6427C17.4957 20.9449 17.166 21.1868 16.7971 21.3525C16.4281 21.5181 16.0283 21.6037 15.6239 21.6037C15.2194 21.6037 14.8196 21.5181 14.4506 21.3525C14.0817 21.1868 13.752 20.9449 13.4832 20.6427L11.9155 18.8792L13.0822 17.8406L14.6509 19.6042C14.7731 19.7415 14.923 19.8514 15.0906 19.9267C15.2583 20.002 15.4401 20.0409 15.6239 20.0409C15.8077 20.0409 15.9894 20.002 16.1571 19.9267C16.3248 19.8514 16.4746 19.7415 16.5968 19.6042L22.1426 13.3646C22.3542 13.1263 22.4711 12.8187 22.4711 12.5C22.4711 12.1813 22.3542 11.8737 22.1426 11.6354L16.5968 5.39586C16.4746 5.25852 16.3248 5.14859 16.1571 5.07332C15.9894 4.99805 15.8077 4.95914 15.6239 4.95914C15.4401 4.95914 15.2583 4.99805 15.0906 5.07332C14.923 5.14859 14.7731 5.25852 14.6509 5.39586" fill="black"/>
<path d="M7.23424 4.35836C7.50299 4.05614 7.83269 3.81425 8.20164 3.64861C8.5706 3.48298 8.97044 3.39734 9.37487 3.39734C9.7793 3.39734 10.1791 3.48298 10.5481 3.64861C10.917 3.81425 11.2467 4.05614 11.5155 4.35836L17.0624 10.5979C17.5282 11.1222 17.7855 11.7992 17.7855 12.5005C17.7855 13.2019 17.5282 13.8788 17.0624 14.4031L11.5165 20.6427C11.2478 20.9451 10.918 21.1872 10.549 21.3529C10.1799 21.5186 9.77995 21.6043 9.37539 21.6043C8.97083 21.6043 8.57086 21.5186 8.20181 21.3529C7.83276 21.1872 7.503 20.9451 7.23424 20.6427L1.68841 14.4031C1.22231 13.8788 0.964844 13.2016 0.964844 12.5C0.964844 11.7984 1.22231 11.1213 1.68841 10.5969L7.23424 4.35836Z" fill="black"/>
</svg>
