<svg width="23" height="18" viewBox="0 0 23 18" fill="none" xmlns="http://www.w3.org/2000/svg">
<path d="M2.83392 5.72585C2.83382 4.7769 3.04422 3.84281 3.44619 3.00758C3.84817 2.17235 4.42912 1.46219 5.1368 0.94096C5.84447 0.419732 6.65666 0.103788 7.50033 0.0215439C8.344 -0.0606997 9.19269 0.0933368 9.97005 0.469799C10.7474 0.846262 11.4291 1.43334 11.9537 2.17824C12.4784 2.92313 12.8296 3.80248 12.9757 4.73719C13.1219 5.6719 13.0584 6.63266 12.7909 7.53305C12.5235 8.43344 12.0605 9.24522 11.4437 9.89539C12.6067 10.5281 13.6165 11.4656 14.3875 12.6285C15.1584 13.7914 15.6679 15.1454 15.8727 16.5758C15.8952 16.735 15.8895 16.8976 15.856 17.0543C15.8224 17.211 15.7616 17.3588 15.6771 17.4892C15.5926 17.6196 15.486 17.7301 15.3634 17.8143C15.2408 17.8985 15.1045 17.9549 14.9625 17.9801C14.8204 18.0053 14.6753 17.999 14.5355 17.9614C14.3956 17.9238 14.2637 17.8557 14.1474 17.761C14.031 17.6663 13.9324 17.5468 13.8572 17.4094C13.7821 17.272 13.7318 17.1194 13.7093 16.9602C13.4903 15.4231 12.7895 14.0238 11.7327 13.0136C10.6759 12.0034 9.33225 11.4485 7.94314 11.4485C6.55404 11.4485 5.21043 12.0034 4.15361 13.0136C3.09678 14.0238 2.39597 15.4231 2.17702 16.9602C2.1544 17.1194 2.10402 17.272 2.02876 17.4094C1.9535 17.5467 1.85484 17.6661 1.7384 17.7608C1.62196 17.8554 1.49002 17.9234 1.35013 17.9609C1.21024 17.9984 1.06512 18.0046 0.923071 17.9793C0.781021 17.9539 0.644817 17.8975 0.522236 17.8132C0.399655 17.7288 0.293098 17.6183 0.208649 17.4878C0.124199 17.3573 0.0635113 17.2095 0.0300498 17.0527C-0.00341164 16.896 -0.00899132 16.7333 0.0136294 16.5742C0.217666 15.1439 0.726868 13.79 1.49795 12.6275C2.26904 11.465 3.27921 10.5283 4.4426 9.89702C3.93459 9.3616 3.5298 8.71529 3.25314 7.99793C2.97647 7.28057 2.83381 6.50733 2.83392 5.72585ZM15.9719 3.27222C16.8201 3.27288 17.6498 3.54941 18.3604 4.06825C19.071 4.58709 19.632 5.32592 19.9751 6.19506C20.3182 7.0642 20.4289 8.02627 20.2935 8.96448C20.1582 9.9027 19.7827 10.7767 19.2126 11.4804C20.1017 11.9739 20.8916 12.6654 21.5341 13.5125C22.1766 14.3596 22.6583 15.3446 22.9497 16.4073C23.0075 16.6135 23.0157 16.8333 22.9733 17.0441C22.9309 17.255 22.8394 17.4496 22.7082 17.6081C22.577 17.7665 22.4107 17.8833 22.2262 17.9465C22.0417 18.0097 21.8456 18.017 21.6578 17.9678C21.4699 17.9192 21.2969 17.8158 21.1562 17.6681C21.0155 17.5205 20.912 17.3339 20.8563 17.1271C20.5943 16.1789 20.1174 15.323 19.4722 14.643C18.8269 13.963 18.0354 13.482 17.1748 13.247C16.9357 13.1824 16.7231 13.0294 16.5711 12.8128C16.419 12.5962 16.3366 12.3285 16.3369 12.0529V11.4772C16.3367 11.2488 16.3935 11.0248 16.5008 10.8306C16.6081 10.6364 16.7616 10.4797 16.9441 10.3779C17.3867 10.1322 17.7421 9.72596 17.9526 9.2253C18.1631 8.72463 18.2164 8.15891 18.1038 7.62003C17.9912 7.08115 17.7193 6.60076 17.3323 6.25689C16.9452 5.91303 16.4658 5.72588 15.9719 5.72585C15.6816 5.72585 15.4031 5.59659 15.1978 5.36652C14.9924 5.13645 14.8771 4.8244 14.8771 4.49903C14.8771 4.17366 14.9924 3.86161 15.1978 3.63154C15.4031 3.40147 15.6816 3.27222 15.9719 3.27222ZM7.94314 2.45434C7.55435 2.44449 7.16771 2.52177 6.80594 2.68166C6.44417 2.84155 6.11455 3.08082 5.83643 3.38542C5.55831 3.69001 5.33731 4.05381 5.18639 4.45543C5.03547 4.85705 4.95768 5.28842 4.95758 5.72419C4.95748 6.15997 5.03508 6.59138 5.18582 6.99309C5.33656 7.3948 5.55741 7.75871 5.83539 8.06346C6.11337 8.36822 6.44288 8.60767 6.80458 8.76776C7.16628 8.92785 7.55288 9.00536 7.94168 8.99572C8.70451 8.97682 9.43041 8.62404 9.96402 8.0129C10.4976 7.40176 10.7965 6.58082 10.7967 5.72583C10.7969 4.87084 10.4984 4.04974 9.96504 3.4383C9.43171 2.82686 8.70596 2.47367 7.94314 2.45434Z" fill="#66686C"/>
</svg>
