<svg width="35" height="35" viewBox="0 0 35 35" fill="none" xmlns="http://www.w3.org/2000/svg">
<path d="M4.23902 9.84376C8.46818 2.52001 17.8321 0.0102155 25.1559 4.23938C28.058 5.91418 30.3306 8.49464 31.6253 11.5851C32.92 14.6755 33.1653 18.1053 32.3236 21.3485C31.8599 23.135 29.684 23.6381 28.4473 22.4365L28.3088 22.2906L25.0261 18.5179C23.5634 16.8379 25.0611 14.3033 27.1815 14.6854L27.3755 14.7292L28.1309 14.9246C27.5615 12.5778 26.2315 10.4855 24.3483 8.97387C22.4651 7.46225 20.1346 6.61635 17.7203 6.5681C15.3059 6.51985 12.9435 7.27197 11.0014 8.70714C9.05934 10.1423 7.64681 12.1798 6.98414 14.502C6.32147 16.8241 6.44591 19.3003 7.33806 21.5442C8.23021 23.7882 9.83991 25.6739 11.9161 26.9071C13.9923 28.1403 16.4182 28.6518 18.8156 28.3617C21.2129 28.0717 23.4469 26.9964 25.169 25.3035C25.3738 25.1021 25.6163 24.9429 25.8827 24.8352C26.149 24.7274 26.4339 24.6732 26.7212 24.6756C27.0085 24.6779 27.2925 24.7369 27.557 24.849C27.8216 24.9611 28.0614 25.1242 28.2629 25.3291C28.4643 25.5339 28.6235 25.7764 28.7312 26.0427C28.839 26.309 28.8932 26.594 28.8909 26.8813C28.8885 27.1686 28.8296 27.4526 28.7174 27.7171C28.6053 27.9816 28.4422 28.2215 28.2374 28.4229C23.4526 33.1304 15.9436 34.2825 9.84339 30.7606C2.51964 26.5315 0.00984931 17.169 4.23902 9.84376ZM17.4996 8.02084C18.0432 8.02083 18.5673 8.22319 18.9698 8.58849C19.3723 8.9538 19.6244 9.45587 19.6769 9.99688L19.6871 10.2083V16.5944L22.6913 19.5985C23.0896 19.9946 23.3203 20.5288 23.3355 21.0903C23.3507 21.6518 23.1494 22.1977 22.7731 22.6148C22.3969 23.0319 21.8746 23.2883 21.3145 23.3308C20.7544 23.3734 20.1994 23.1988 19.7644 22.8433L19.5982 22.6931L15.9523 19.0473C15.5947 18.6897 15.3721 18.2191 15.3223 17.7158L15.3121 17.5V10.2083C15.3121 9.62818 15.5426 9.07178 15.9528 8.66154C16.3631 8.25131 16.9195 8.02084 17.4996 8.02084Z" fill="black"/>
</svg>
