<svg width="25" height="25" viewBox="0 0 25 25" fill="none" xmlns="http://www.w3.org/2000/svg">
<g clip-path="url(#clip0_18_616)">
<path d="M8.3335 14.1666C8.3335 13.9456 8.42129 13.7337 8.57757 13.5774C8.73385 13.4211 8.94582 13.3333 9.16683 13.3333C9.38784 13.3333 9.5998 13.4211 9.75608 13.5774C9.91237 13.7337 10.0002 13.9456 10.0002 14.1666C10.0002 14.3877 9.91237 14.5996 9.75608 14.7559C9.5998 14.9122 9.38784 15 9.16683 15C8.94582 15 8.73385 14.9122 8.57757 14.7559C8.42129 14.5996 8.3335 14.3877 8.3335 14.1666ZM15.0002 14.1666C15.0002 13.9456 15.088 13.7337 15.2442 13.5774C15.4005 13.4211 15.6125 13.3333 15.8335 13.3333C16.0545 13.3333 16.2665 13.4211 16.4228 13.5774C16.579 13.7337 16.6668 13.9456 16.6668 14.1666C16.6668 14.3877 16.579 14.5996 16.4228 14.7559C16.2665 14.9122 16.0545 15 15.8335 15C15.6125 15 15.4005 14.9122 15.2442 14.7559C15.088 14.5996 15.0002 14.3877 15.0002 14.1666Z" fill="black"/>
<path fill-rule="evenodd" clip-rule="evenodd" d="M13.3335 3.37C15.6111 3.57792 17.7288 4.62977 19.2706 6.31902C20.8125 8.00827 21.6672 10.2129 21.6668 12.5V22.5C21.6668 23.163 21.4034 23.7989 20.9346 24.2678C20.4658 24.7366 19.8299 25 19.1668 25H5.8335C5.17045 25 4.53457 24.7366 4.06573 24.2678C3.59689 23.7989 3.3335 23.163 3.3335 22.5V12.5C3.33317 10.2129 4.18785 8.00827 5.7297 6.31902C7.27155 4.62977 9.38919 3.57792 11.6668 3.37V0H13.3335V3.37ZM9.16683 11.6667C8.50379 11.6667 7.8679 11.9301 7.39906 12.3989C6.93022 12.8677 6.66683 13.5036 6.66683 14.1667C6.66683 14.8297 6.93022 15.4656 7.39906 15.9344C7.8679 16.4033 8.50379 16.6667 9.16683 16.6667C9.82987 16.6667 10.4658 16.4033 10.9346 15.9344C11.4034 15.4656 11.6668 14.8297 11.6668 14.1667C11.6668 13.5036 11.4034 12.8677 10.9346 12.3989C10.4658 11.9301 9.82987 11.6667 9.16683 11.6667ZM15.8335 11.6667C15.1705 11.6667 14.5346 11.9301 14.0657 12.3989C13.5969 12.8677 13.3335 13.5036 13.3335 14.1667C13.3335 14.8297 13.5969 15.4656 14.0657 15.9344C14.5346 16.4033 15.1705 16.6667 15.8335 16.6667C16.4965 16.6667 17.1324 16.4033 17.6013 15.9344C18.0701 15.4656 18.3335 14.8297 18.3335 14.1667C18.3335 13.5036 18.0701 12.8677 17.6013 12.3989C17.1324 11.9301 16.4965 11.6667 15.8335 11.6667ZM18.3335 20H6.66683V18.3333H18.3335V20Z" fill="black"/>
<path d="M0 13.3333V20H1.66667V13.3333H0ZM25 13.3333H23.3333V20H25V13.3333Z" fill="black"/>
</g>
<defs>
<clipPath id="clip0_18_616">
<rect width="25" height="25" fill="white"/>
</clipPath>
</defs>
</svg>
