<svg width="25" height="25" viewBox="0 0 25 25" fill="none" xmlns="http://www.w3.org/2000/svg">
<path d="M17.7082 2.08337H7.2915C5.52067 2.08337 4.1665 3.43754 4.1665 5.20837V11.4584H13.1248L10.729 9.06254C10.3123 8.64587 10.3123 8.02087 10.729 7.60421C11.1457 7.18754 11.7707 7.18754 12.1873 7.60421L16.354 11.7709C16.7707 12.1875 16.7707 12.8125 16.354 13.2292L12.1873 17.3959C11.7707 17.8125 11.1457 17.8125 10.729 17.3959C10.3123 16.9792 10.3123 16.3542 10.729 15.9375L13.1248 13.5417H4.1665V19.7917C4.1665 21.5625 5.52067 22.9167 7.2915 22.9167H17.7082C19.479 22.9167 20.8332 21.5625 20.8332 19.7917V5.20837C20.8332 3.43754 19.479 2.08337 17.7082 2.08337Z" fill="black"/>
</svg>
