<svg width="25" height="25" viewBox="0 0 25 25" fill="none" xmlns="http://www.w3.org/2000/svg">
<path d="M22.2655 0H2.73454C1.22415 0 0 1.35093 0 3.01713V16.8102C0 18.4759 1.22415 19.8278 2.73454 19.8278H5.61699V25L9.94608 19.8278H22.2655C23.7763 19.8278 25 18.4759 25 16.8102V3.01713C24.9996 1.35093 23.7759 0 22.2655 0ZM5.82782 11.8537C4.85659 11.8537 4.06993 10.9856 4.06993 9.91389C4.06993 8.84259 4.85659 7.97454 5.82782 7.97454C6.79905 7.97454 7.58571 8.84259 7.58571 9.91389C7.58571 10.9852 6.79905 11.8537 5.82782 11.8537ZM12.4998 11.8537C11.5294 11.8537 10.7419 10.9856 10.7419 9.91389C10.7419 8.84259 11.5294 7.97454 12.4998 7.97454C13.4702 7.97454 14.2577 8.84259 14.2577 9.91389C14.2577 10.9852 13.4702 11.8537 12.4998 11.8537ZM19.1718 11.8537C18.2005 11.8537 17.4139 10.9856 17.4139 9.91389C17.4139 8.84259 18.2005 7.97454 19.1718 7.97454C20.1422 7.97454 20.9296 8.84259 20.9296 9.91389C20.9292 10.9856 20.1422 11.8537 19.1718 11.8537Z" fill="black"/>
</svg>
