<svg width="25" height="25" viewBox="0 0 25 25" fill="none" xmlns="http://www.w3.org/2000/svg">
<path fill-rule="evenodd" clip-rule="evenodd" d="M17.3704 1.1412C17.7033 -0.373815 19.8582 -0.382769 20.2019 1.12866L20.2198 1.2003L20.252 1.34356C20.4505 2.19272 20.8944 2.96462 21.5284 3.56301C22.1625 4.1614 22.9585 4.55978 23.8174 4.70847C25.3942 4.98246 25.3942 7.2514 23.8174 7.5254C22.9537 7.67471 22.1536 8.07649 21.5178 8.68009C20.8821 9.28369 20.4391 10.0621 20.2449 10.9172L20.2019 11.1052C19.8582 12.6166 17.7033 12.6077 17.3704 11.0927L17.3346 10.9315C16.9515 9.17651 15.5447 7.82983 13.7782 7.52181C12.2031 7.24782 12.2031 4.98425 13.7782 4.71026C14.6392 4.56008 15.4365 4.15788 16.0692 3.5545C16.7019 2.95111 17.1416 2.17362 17.3328 1.32028L17.3596 1.20209L17.3704 1.1412ZM3.13222 4.40583H10.9896C9.96939 6.28616 10.7838 9.0619 13.4309 9.52213C14.3008 9.67435 15.0096 10.2922 15.2852 11.1213H2.68476V21.8661C2.68476 22.1132 2.88522 22.3138 3.13222 22.3138H19.2408C19.3594 22.3138 19.4732 22.2666 19.5572 22.1827C19.6411 22.0987 19.6882 21.9848 19.6882 21.8661V14.1531C20.8409 13.8612 21.8539 12.9963 22.1832 11.5565L22.2262 11.3667C22.2613 11.215 22.3104 11.0669 22.373 10.9243V21.8661C22.373 22.6973 22.043 23.4944 21.4556 24.0821C20.8682 24.6698 20.0715 25 19.2408 25H3.13222C2.3015 25 1.50481 24.6698 0.917405 24.0821C0.33 23.4944 0 22.6973 0 21.8661V7.53972C0 5.80802 1.40323 4.40583 3.13222 4.40583ZM4.85583 13.0661C4.95971 12.9622 5.08304 12.8797 5.21878 12.8234C5.35452 12.7672 5.50001 12.7382 5.64694 12.7382C5.79386 12.7382 5.93935 12.7672 6.07509 12.8234C6.21083 12.8797 6.33416 12.9622 6.43804 13.0661L9.1228 15.7523C9.22671 15.8563 9.30913 15.9797 9.36537 16.1155C9.42161 16.2513 9.45055 16.3968 9.45055 16.5439C9.45055 16.6909 9.42161 16.8364 9.36537 16.9722C9.30913 17.1081 9.22671 17.2315 9.1228 17.3354L6.43804 20.0216C6.33416 20.1255 6.21082 20.208 6.07508 20.2642C5.93934 20.3205 5.79386 20.3494 5.64694 20.3494C5.50001 20.3494 5.35453 20.3205 5.21879 20.2642C5.08305 20.208 4.95972 20.1255 4.85583 20.0216C4.75194 19.9176 4.66953 19.7942 4.6133 19.6584C4.55708 19.5226 4.52814 19.3771 4.52814 19.2301C4.52814 19.083 4.55708 18.9375 4.6133 18.8017C4.66953 18.6659 4.75194 18.5425 4.85583 18.4385L6.74948 16.5474L4.85762 14.651C4.75371 14.547 4.67129 14.4236 4.61505 14.2878C4.55881 14.152 4.52987 14.0065 4.52987 13.8594C4.52987 13.7124 4.55881 13.5669 4.61505 13.4311C4.67129 13.2952 4.75371 13.1719 4.85762 13.0679L4.85583 13.0661ZM9.8978 19.2301C9.8978 18.6122 10.399 18.1108 11.0164 18.1108H13.7012C13.9979 18.1108 14.2824 18.2287 14.4922 18.4386C14.702 18.6485 14.8199 18.9332 14.8199 19.2301C14.8199 19.5269 14.702 19.8116 14.4922 20.0215C14.2824 20.2314 13.9979 20.3493 13.7012 20.3493H11.0164C10.7198 20.3493 10.4352 20.2314 10.2254 20.0215C10.0157 19.8116 9.8978 19.5269 9.8978 19.2301Z" fill="black"/>
</svg>
