<svg width="40" height="40" viewBox="0 0 40 40" fill="none" xmlns="http://www.w3.org/2000/svg">
<path d="M19.9998 12C22.1806 12 24.272 12.8429 25.8141 14.3431C27.3561 15.8434 28.2224 17.8783 28.2224 20C28.2224 22.1217 27.3561 24.1566 25.8141 25.6569C24.272 27.1571 22.1806 28 19.9998 28C17.819 28 15.7276 27.1571 14.1855 25.6569C12.6435 24.1566 11.7772 22.1217 11.7772 20C11.7772 17.8783 12.6435 15.8434 14.1855 14.3431C15.7276 12.8429 17.819 12 19.9998 12ZM19.9998 16C18.9094 16 17.8637 16.4214 17.0927 17.1716C16.3216 17.9217 15.8885 18.9391 15.8885 20C15.8885 21.0609 16.3216 22.0783 17.0927 22.8284C17.8637 23.5786 18.9094 24 19.9998 24C21.0902 24 22.1359 23.5786 22.9069 22.8284C23.678 22.0783 24.1111 21.0609 24.1111 20C24.1111 18.9391 23.678 17.9217 22.9069 17.1716C22.1359 16.4214 21.0902 16 19.9998 16ZM15.8885 40C15.3746 40 14.9429 39.64 14.8607 39.16L14.1001 33.86C12.805 33.36 11.6949 32.68 10.626 31.88L5.5074 33.9C5.05516 34.06 4.50013 33.9 4.25345 33.46L0.14213 26.54C0.016314 26.3339 -0.0280405 26.0903 0.0173604 25.8547C0.0627614 25.6192 0.194809 25.4077 0.388809 25.26L4.72625 21.94L4.58236 20L4.72625 18L0.388809 14.74C0.194809 14.5923 0.0627614 14.3808 0.0173604 14.1453C-0.0280405 13.9097 0.016314 13.6661 0.14213 13.46L4.25345 6.54C4.50013 6.1 5.05516 5.92 5.5074 6.1L10.626 8.1C11.6949 7.32 12.805 6.64 14.1001 6.14L14.8607 0.84C14.9429 0.36 15.3746 0 15.8885 0H24.1111C24.625 0 25.0567 0.36 25.139 0.84L25.8995 6.14C27.1946 6.64 28.3047 7.32 29.3736 8.1L34.4922 6.1C34.9445 5.92 35.4995 6.1 35.7462 6.54L39.8575 13.46C40.1247 13.9 40.0014 14.44 39.6108 14.74L35.2734 18L35.4173 20L35.2734 22L39.6108 25.26C40.0014 25.56 40.1247 26.1 39.8575 26.54L35.7462 33.46C35.4995 33.9 34.9445 34.08 34.4922 33.9L29.3736 31.9C28.3047 32.68 27.1946 33.36 25.8995 33.86L25.139 39.16C25.0567 39.64 24.625 40 24.1111 40H15.8885ZM18.4581 4L17.6975 9.22C15.2307 9.72 13.0517 11 11.4688 12.78L6.51468 10.7L4.97293 13.3L9.31037 16.4C8.48811 18.7333 8.48811 21.2667 9.31037 23.6L4.95237 26.72L6.49412 29.32L11.4894 27.24C13.0722 29 15.2307 30.28 17.6769 30.76L18.4375 36H21.5621L22.3227 30.78C24.7689 30.28 26.9274 29 28.5102 27.24L33.5055 29.32L35.0472 26.72L30.6892 23.62C31.5115 21.28 31.5115 18.74 30.6892 16.4L35.0267 13.3L33.4849 10.7L28.5308 12.78C26.9155 10.9606 24.7244 9.71535 22.3021 9.24L21.5415 4H18.4581Z" fill="black"/>
</svg>
