<svg width="40" height="29" viewBox="0 0 40 29" fill="none" xmlns="http://www.w3.org/2000/svg">
<path d="M4.92856 9.22498C4.92838 7.69612 5.29429 6.19119 5.99338 4.84555C6.69247 3.4999 7.70282 2.35575 8.93356 1.51599C10.1643 0.676235 11.5768 0.167213 13.0441 0.0347097C14.5113 -0.097794 15.9873 0.150376 17.3392 0.756899C18.6912 1.36342 19.8767 2.30927 20.7891 3.50938C21.7015 4.70949 22.3123 6.12622 22.5665 7.63215C22.8206 9.13807 22.7102 10.686 22.2451 12.1366C21.78 13.5872 20.9749 14.8951 19.9021 15.9426C21.9247 16.9619 23.6808 18.4724 25.0217 20.3459C26.3625 22.2195 27.2485 24.4009 27.6046 26.7055C27.6438 26.9619 27.6339 27.2239 27.5756 27.4764C27.5172 27.7288 27.4115 27.9669 27.2646 28.177C27.1176 28.3871 26.9322 28.5651 26.7189 28.7008C26.5057 28.8365 26.2688 28.9273 26.0217 28.9679C25.7747 29.0086 25.5223 28.9984 25.2791 28.9378C25.0359 28.8772 24.8065 28.7675 24.6041 28.6149C24.4017 28.4624 24.2303 28.2699 24.0996 28.0485C23.9688 27.8272 23.8814 27.5812 23.8422 27.3248C23.4614 24.8483 22.2426 22.5939 20.4047 20.9664C18.5667 19.3388 16.23 18.4448 13.8142 18.4448C11.3983 18.4448 9.06162 19.3388 7.22366 20.9664C5.38571 22.5939 4.1669 24.8483 3.78612 27.3248C3.74678 27.5812 3.65917 27.8271 3.52828 28.0484C3.3974 28.2697 3.2258 28.4621 3.0233 28.6146C2.82079 28.767 2.59135 28.8766 2.34805 28.937C2.10476 28.9974 1.85238 29.0075 1.60534 28.9666C1.3583 28.9258 1.12142 28.8348 0.908237 28.699C0.695053 28.5631 0.509736 28.385 0.362867 28.1748C0.215999 27.9646 0.110454 27.7264 0.0522606 27.4738C-0.00593328 27.2213 -0.0156371 26.9593 0.0237032 26.7028C0.378549 24.3985 1.26412 22.2172 2.60514 20.3443C3.94615 18.4714 5.70297 16.9622 7.72625 15.9452C6.84277 15.0826 6.13878 14.0413 5.65763 12.8856C5.17648 11.7298 4.92836 10.484 4.92856 9.22498ZM27.7773 5.2719C29.2523 5.27297 30.6953 5.7185 31.9312 6.55441C33.167 7.39032 34.1425 8.58066 34.7393 9.98093C35.3361 11.3812 35.5285 12.9312 35.2931 14.4428C35.0577 15.9543 34.4047 17.3625 33.4133 18.4963C34.9594 19.2914 36.3332 20.4053 37.4506 21.7701C38.5681 23.1349 39.4057 24.7219 39.9124 26.434C40.0131 26.7663 40.0272 27.1202 39.9535 27.46C39.8797 27.7998 39.7207 28.1132 39.4925 28.3685C39.2643 28.6239 38.9752 28.812 38.6543 28.9138C38.3334 29.0156 37.9924 29.0275 37.6657 28.9482C37.339 28.8698 37.0381 28.7032 36.7934 28.4653C36.5487 28.2275 36.3688 27.9268 36.2719 27.5936C35.8162 26.066 34.9868 24.6871 33.8647 23.5915C32.7425 22.4959 31.3659 21.721 29.8692 21.3425C29.4534 21.2383 29.0836 20.9918 28.8192 20.6428C28.5549 20.2938 28.4114 19.8626 28.4119 19.4186V18.491C28.4117 18.123 28.5105 17.7623 28.697 17.4494C28.8836 17.1365 29.1507 16.8839 29.4681 16.72C30.2377 16.324 30.8558 15.6696 31.2219 14.863C31.588 14.0563 31.6807 13.1449 31.4848 12.2767C31.289 11.4085 30.8161 10.6346 30.1431 10.0806C29.47 9.52654 28.6362 9.22503 27.7773 9.22498C27.2723 9.22498 26.788 9.01674 26.4309 8.64606C26.0738 8.27539 25.8732 7.77265 25.8732 7.24844C25.8732 6.72423 26.0738 6.22149 26.4309 5.85082C26.788 5.48014 27.2723 5.2719 27.7773 5.2719ZM13.8142 3.95421C13.138 3.93834 12.4656 4.06286 11.8364 4.32045C11.2072 4.57805 10.634 4.96354 10.1503 5.45428C9.66663 5.94502 9.28228 6.53113 9.01981 7.17819C8.75734 7.82525 8.62205 8.52023 8.62188 9.22231C8.62171 9.9244 8.75667 10.6194 9.01882 11.2666C9.28098 11.9138 9.66505 12.5001 10.1485 12.9911C10.6319 13.4821 11.205 13.8679 11.8341 14.1258C12.4631 14.3838 13.1354 14.5086 13.8116 14.4931C15.1383 14.4627 16.4007 13.8943 17.3287 12.9097C18.2567 11.925 18.7765 10.6024 18.7769 9.22495C18.7772 7.84746 18.258 6.52458 17.3305 5.53948C16.403 4.55438 15.1408 3.98535 13.8142 3.95421Z" fill="black"/>
</svg>
